<svg width="150" height="74" viewBox="0 0 150 74" fill="none" xmlns="http://www.w3.org/2000/svg">
<path d="M45.6166 66.9863V44.0856C45.8529 44.0856 46.0892 44.0856 46.3255 44.0856C46.5618 44.0856 46.7981 44.0856 47.0344 44.0856C47.2707 44.0856 47.507 44.0856 47.7433 44.0856C48.1235 44.0856 48.668 44.0651 49.3769 44.024C50.0961 43.9829 50.8666 43.9418 51.6886 43.9007C52.5207 43.8596 53.2913 43.8391 54.0002 43.8391C57.8838 43.8391 60.7296 44.81 62.5379 46.7517C64.3461 48.6935 65.2502 51.4315 65.2502 54.9658C65.2502 57.5651 64.793 59.7843 63.8786 61.6233C62.9642 63.4521 61.644 64.8493 59.918 65.8151C58.192 66.7706 56.1064 67.2432 53.6612 67.2329C52.5413 67.2124 51.4779 67.1661 50.4711 67.0942C49.4745 67.0223 48.5344 66.9863 47.6509 66.9863C47.4249 66.9863 47.1988 66.9863 46.9728 66.9863C46.7468 66.9863 46.5207 66.9863 46.2947 66.9863C46.0687 66.9863 45.8427 66.9863 45.6166 66.9863ZM51.3803 62.7637C51.6783 62.8562 52.0636 62.923 52.5362 62.9641C53.0088 62.9949 53.4968 63.0103 54.0002 63.0103C55.0687 63 55.9985 62.7278 56.7896 62.1935C57.5909 61.6593 58.2074 60.8374 58.6389 59.7278C59.0807 58.6182 59.3016 57.1952 59.3016 55.4589C59.3016 53.6199 59.1012 52.1558 58.7005 51.0668C58.2999 49.9675 57.6886 49.1764 56.8666 48.6935C56.055 48.2106 55.0276 47.9692 53.7844 47.9692C53.4043 47.9692 52.9779 47.9949 52.5053 48.0463C52.0327 48.0874 51.6577 48.1336 51.3803 48.185V62.7637ZM79.6383 67.2329C77.378 67.274 75.4465 66.8168 73.8437 65.8613C72.2513 64.8956 71.0389 63.524 70.2067 61.7466C69.3848 59.9589 68.9944 57.8528 69.0355 55.4281C69.0869 52.7158 69.5852 50.5223 70.5304 48.8476C71.4859 47.1627 72.7855 45.9247 74.4293 45.1336C76.0732 44.3322 77.9533 43.9007 80.0698 43.8391C82.2376 43.7774 84.0972 44.2192 85.6485 45.1644C87.1999 46.0993 88.3814 47.4504 89.193 49.2175C90.015 50.9846 90.4054 53.0754 90.3643 55.4898C90.3129 58.2021 89.83 60.4161 88.9156 62.1319C88.0013 63.8476 86.7478 65.1165 85.1554 65.9384C83.5629 66.7603 81.7239 67.1918 79.6383 67.2329ZM79.7307 63.1028C81.2102 63.1028 82.3763 62.5069 83.229 61.3151C84.0817 60.113 84.5081 58.1199 84.5081 55.3356C84.5081 53.8973 84.3437 52.6336 84.015 51.5445C83.6862 50.4555 83.1879 49.6079 82.5201 49.0017C81.8523 48.3956 81.0047 48.0925 79.9773 48.0925C79.0424 48.0925 78.1896 48.3237 77.4191 48.786C76.6485 49.2483 76.0321 50.024 75.5698 51.113C75.1177 52.2021 74.8917 53.6918 74.8917 55.5822C74.8917 57.0411 75.0715 58.3356 75.4311 59.4658C75.7906 60.5959 76.3249 61.4846 77.0338 62.1319C77.753 62.7791 78.6519 63.1028 79.7307 63.1028ZM104.8 67.2329C102.54 67.274 100.608 66.8168 99.0057 65.8613C97.4133 64.8956 96.2009 63.524 95.3687 61.7466C94.5468 59.9589 94.1564 57.8528 94.1975 55.4281C94.2489 52.7158 94.7472 50.5223 95.6924 48.8476C96.6479 47.1627 97.9475 45.9247 99.5913 45.1336C101.235 44.3322 103.115 43.9007 105.232 43.8391C107.4 43.7774 109.259 44.2192 110.811 45.1644C112.362 46.0993 113.543 47.4504 114.355 49.2175C115.177 50.9846 115.567 53.0754 115.526 55.4898C115.475 58.2021 114.992 60.4161 114.078 62.1319C113.163 63.8476 111.91 65.1165 110.317 65.9384C108.725 66.7603 106.886 67.1918 104.8 67.2329ZM104.893 63.1028C106.372 63.1028 107.538 62.5069 108.391 61.3151C109.244 60.113 109.67 58.1199 109.67 55.3356C109.67 53.8973 109.506 52.6336 109.177 51.5445C108.848 50.4555 108.35 49.6079 107.682 49.0017C107.014 48.3956 106.167 48.0925 105.139 48.0925C104.204 48.0925 103.352 48.3237 102.581 48.786C101.811 49.2483 101.194 50.024 100.732 51.113C100.28 52.2021 100.054 53.6918 100.054 55.5822C100.054 57.0411 100.233 58.3356 100.593 59.4658C100.953 60.5959 101.487 61.4846 102.196 62.1319C102.915 62.7791 103.814 63.1028 104.893 63.1028ZM126.264 66.9863H120.531V44.0856C120.747 44.0856 120.962 44.0856 121.178 44.0856C121.404 44.0856 121.625 44.0856 121.841 44.0856C122.067 44.0856 122.288 44.0856 122.503 44.0856C123.325 44.0856 124.27 44.0445 125.339 43.9624C126.418 43.8802 127.774 43.8391 129.407 43.8391C130.414 43.8391 131.421 43.9521 132.428 44.1781C133.435 44.3939 134.354 44.774 135.187 45.3185C136.019 45.8528 136.687 46.5925 137.19 47.5377C137.693 48.4829 137.945 49.6747 137.945 51.113C137.945 52.6747 137.683 53.9641 137.159 54.9812C136.645 55.988 135.931 56.7689 135.017 57.3237C134.103 57.8682 133.044 58.2329 131.842 58.4178C131.442 58.4898 131.041 58.5617 130.64 58.6336C130.24 58.7055 129.705 58.7671 129.038 58.8185C128.38 58.8596 127.455 58.8802 126.264 58.8802V66.9863ZM126.264 54.9041C126.469 54.935 126.747 54.9606 127.096 54.9812C127.445 55.0017 127.8 55.0171 128.159 55.0274C128.519 55.0274 128.822 55.0274 129.068 55.0274C130.24 55.0274 131.092 54.6576 131.627 53.9178C132.161 53.1678 132.428 52.2637 132.428 51.2055C132.428 50.6404 132.325 50.1062 132.12 49.6028C131.925 49.0891 131.555 48.673 131.01 48.3545C130.476 48.036 129.705 47.8767 128.699 47.8767C128.288 47.8767 127.866 47.9024 127.435 47.9538C127.014 47.9949 126.623 48.0617 126.264 48.1541V54.9041ZM133.168 66.9863C133.044 66.8322 132.926 66.6473 132.813 66.4315C132.711 66.2055 132.551 65.8459 132.336 65.3528C132.027 64.6644 131.75 63.9452 131.503 63.1952C131.257 62.435 131.005 61.7261 130.748 61.0685C130.502 60.411 130.214 59.8767 129.885 59.4658C129.556 59.0445 129.151 58.8288 128.668 58.8185L129.993 57.7706L133.63 57.2774C134.205 57.5343 134.704 57.9555 135.125 58.5411C135.556 59.1267 135.947 59.8048 136.296 60.5754C136.656 61.3356 137.01 62.1319 137.36 62.9641C137.709 63.786 138.099 64.5719 138.531 65.3219C138.685 65.5993 138.844 65.8767 139.008 66.1541C139.173 66.4315 139.332 66.7089 139.486 66.9863H133.168Z" fill="#8C8CA2"/>
<path d="M26.2418 69.1527C24.4336 69.1527 22.8514 68.7685 21.4952 68C20.1842 67.2767 19.5288 65.9884 19.5288 64.1349C19.5288 62.9596 19.8226 61.6486 20.4103 60.2021C21.224 61.1062 21.9699 61.739 22.6479 62.1007C23.3712 62.4623 24.1397 62.6432 24.9534 62.6432C27.2137 62.6432 28.8863 61.3774 29.9712 58.8459C31.1014 56.3144 31.6664 53.5116 31.6664 50.4377C31.6664 44.6966 29.5192 41.826 25.2247 41.826C24.0041 41.826 22.9644 41.8938 22.1055 42.0295L16.5452 68H6.78082L16.0027 24.874L26.0384 23.5178L22.8514 38.5712H23.2582C24.976 38.5712 26.5808 38.0288 28.0726 36.9438C29.5644 35.8137 30.7623 34.4123 31.6664 32.7397C32.5705 31.0219 33.0226 29.3041 33.0226 27.5863C33.0226 25.5068 32.2767 23.7664 30.7849 22.3651C29.3384 20.9637 27.1007 20.263 24.0719 20.263C21.3144 20.263 18.6247 20.8959 16.0027 22.1616C13.3808 23.3822 11.2336 25.2356 9.56096 27.7219C7.93356 30.2082 7.11986 33.2144 7.11986 36.7404C7.11986 38.413 7.27808 39.5884 7.59452 40.2664C7.91096 40.8993 8.06918 41.261 8.06918 41.3514C5.67329 41.3514 3.86507 40.8767 2.64452 39.9274C1.42397 38.9329 0.813699 37.3281 0.813699 35.113C0.813699 32.039 1.96644 29.1233 4.27192 26.3658C6.5774 23.6082 9.62877 21.3931 13.426 19.7205C17.2233 18.0027 21.224 17.1438 25.4281 17.1438C28.5925 17.1438 31.2596 17.6411 33.4295 18.6356C35.5993 19.6301 37.2041 20.9411 38.2438 22.5685C39.3288 24.1959 39.8712 25.9815 39.8712 27.9253C39.8712 30.0048 39.2836 32.0164 38.1082 33.9603C36.9329 35.9041 35.2603 37.4863 33.0904 38.7068C35.8027 39.2041 37.8144 40.4699 39.1253 42.5041C40.4363 44.4931 41.0918 46.8664 41.0918 49.624C41.0918 52.2007 40.5945 55.0034 39.6 58.0322C38.6507 61.061 37.0459 63.6829 34.7856 65.8979C32.5705 68.0678 29.7226 69.1527 26.2418 69.1527Z" fill="#4A4A68"/>
<path d="M48.3586 40.4103C47.3395 40.4103 46.5114 40.0918 45.8744 39.4549C45.2586 38.8179 44.9508 37.8624 44.9508 36.5884C44.9508 36.0576 45.0357 35.3675 45.2056 34.5182L47.3713 24.2946H51.9576L49.6645 35.1233C49.6008 35.4418 49.5689 35.7391 49.5689 36.0151C49.5689 36.8857 49.8874 37.321 50.5244 37.321C51.1189 37.321 51.6285 37.0768 52.0532 36.5884C52.4778 36.0788 52.8176 35.3888 53.0723 34.5182L55.2381 24.2946H59.8244L57.5313 35.1233C57.4463 35.4418 57.4039 35.7816 57.4039 36.1425C57.4039 36.5672 57.4994 36.8751 57.6905 37.0662C57.9028 37.236 58.2426 37.321 58.7097 37.321C59.3042 37.321 59.8138 37.0662 60.2384 36.5566C60.6843 36.047 61.0347 35.3675 61.2895 34.5182H62.6271C61.8415 36.8114 60.8648 38.372 59.697 39.2001C58.5504 40.0069 57.3932 40.4103 56.2254 40.4103C55.3124 40.4103 54.5799 40.1555 54.0278 39.646C53.497 39.1364 53.1785 38.3826 53.0723 37.3846C52.3504 38.5525 51.586 39.3487 50.7792 39.7733C49.9936 40.198 49.1867 40.4103 48.3586 40.4103ZM66.1905 40.4103C65.1714 40.4103 64.3114 40.2192 63.6107 39.837C62.9101 39.4336 62.3898 38.924 62.0501 38.3083C61.7104 37.6713 61.5405 37.0131 61.5405 36.3336C61.5405 35.6329 61.7104 35.0278 62.0501 34.5182C62.3686 33.9874 62.7614 33.6052 63.2285 33.3716C64.0566 31.8853 64.7785 30.3884 65.3943 28.8809C66.0101 27.3521 66.594 25.7066 67.146 23.9442L71.8597 23.3073C71.9659 26.0251 72.1464 28.9658 72.4012 32.1295C72.5073 33.4035 72.5604 34.3271 72.5604 34.9004C72.5604 35.3888 72.5179 35.7922 72.433 36.1107C73.4309 35.5374 74.1953 35.0066 74.7262 34.5182H76.0638C74.7049 36.0894 73.0806 37.4165 71.1909 38.4994C70.5751 39.1576 69.8107 39.646 68.8977 39.9644C68.0059 40.2617 67.1035 40.4103 66.1905 40.4103ZM65.1714 37.8942C65.957 37.8942 66.6152 37.6607 67.146 37.1936C67.6768 36.7264 67.9422 35.9727 67.9422 34.9323C67.9422 34.2953 67.8785 33.4035 67.7511 32.2569C67.5388 29.8364 67.4008 28.212 67.3371 27.384C66.8275 29.0614 65.9676 31.0679 64.7573 33.4035C65.2457 33.6583 65.4898 34.0299 65.4898 34.5182C65.4898 34.9216 65.3518 35.2826 65.0758 35.6011C64.821 35.9196 64.4919 36.0788 64.0885 36.0788C63.6426 36.0788 63.3559 35.9408 63.2285 35.6648C63.2285 36.4292 63.3772 36.9918 63.6744 37.3528C63.9929 37.7138 64.4919 37.8942 65.1714 37.8942ZM81.3137 22.5747C80.613 22.5747 80.0185 22.3305 79.5302 21.8422C79.0418 21.3538 78.7976 20.7593 78.7976 20.0586C78.7976 19.3579 79.0418 18.7634 79.5302 18.2751C80.0185 17.7655 80.613 17.5107 81.3137 17.5107C82.0144 17.5107 82.6089 17.7655 83.0973 18.2751C83.6069 18.7634 83.8617 19.3579 83.8617 20.0586C83.8617 20.7593 83.6069 21.3538 83.0973 21.8422C82.6089 22.3305 82.0144 22.5747 81.3137 22.5747ZM79.148 40.4103C78.1288 40.4103 77.3007 40.0918 76.6637 39.4549C76.048 38.8179 75.7401 37.8624 75.7401 36.5884C75.7401 36.0576 75.825 35.3675 75.9949 34.5182L78.1606 24.2946H82.747L80.4538 35.1233C80.3689 35.4418 80.3264 35.7816 80.3264 36.1425C80.3264 36.5672 80.422 36.8751 80.613 37.0662C80.8254 37.236 81.1651 37.321 81.6322 37.321C82.248 37.321 82.8213 37.0662 83.3521 36.5566C83.8829 36.0257 84.2651 35.3463 84.4987 34.5182H85.8363C85.0507 36.8114 84.0422 38.372 82.8107 39.2001C81.5791 40.0069 80.3583 40.4103 79.148 40.4103ZM97.2575 40.4103C95.9623 40.4103 95.0069 40.0706 94.3911 39.3912C93.7966 38.6905 93.4993 37.8305 93.4993 36.8114C93.4993 36.3655 93.5524 35.8665 93.6586 35.3144C93.7647 34.7412 93.8709 34.1891 93.9771 33.6583C94.1045 33.1275 94.1894 32.7877 94.2319 32.6391C94.4017 31.896 94.561 31.1634 94.7096 30.4415C94.8582 29.7196 94.9325 29.1357 94.9325 28.6898C94.9325 27.6069 94.5504 27.0655 93.786 27.0655C93.2339 27.0655 92.7456 27.3415 92.3209 27.8936C91.8962 28.4244 91.5565 29.1251 91.3017 29.9956L89.136 40.2192H84.5497L87.9257 24.2946H92.512L92.1617 25.9507C93.2233 24.7617 94.4654 24.1672 95.888 24.1672C96.9709 24.1672 97.8308 24.4644 98.4678 25.059C99.1048 25.6535 99.4233 26.5559 99.4233 27.7662C99.4233 28.3819 99.349 29.072 99.2004 29.8364C99.0517 30.5795 98.8394 31.4925 98.5634 32.5754C98.3935 33.2336 98.2343 33.8812 98.0856 34.5182C97.9582 35.134 97.8945 35.6223 97.8945 35.9833C97.8945 36.4079 97.9901 36.737 98.1812 36.9706C98.3723 37.2042 98.7014 37.321 99.1685 37.321C99.8055 37.321 100.315 37.098 100.697 36.6521C101.079 36.185 101.462 35.4737 101.844 34.5182H103.182C102.396 36.8538 101.483 38.4251 100.442 39.2319C99.4233 40.0175 98.3617 40.4103 97.2575 40.4103ZM107.669 40.4103C106.097 40.4103 104.876 40.0069 104.006 39.2001C103.135 38.372 102.7 37.0874 102.7 35.3463C102.7 33.8812 102.987 32.2675 103.56 30.5052C104.133 28.7429 105.068 27.2247 106.363 25.9507C107.658 24.6555 109.303 24.0079 111.299 24.0079C113.635 24.0079 114.803 25.0271 114.803 27.0655C114.803 28.2545 114.463 29.348 113.784 30.346C113.104 31.3439 112.202 32.1507 111.076 32.7665C109.951 33.361 108.751 33.7007 107.477 33.7857C107.435 34.4227 107.414 34.8473 107.414 35.0596C107.414 36.1001 107.594 36.8114 107.955 37.1936C108.316 37.5545 108.9 37.735 109.707 37.735C110.853 37.735 111.83 37.4696 112.637 36.9388C113.465 36.4079 114.368 35.6011 115.344 34.5182H116.427C114.07 38.4463 111.151 40.4103 107.669 40.4103ZM107.732 32.2569C108.518 32.2144 109.261 31.9384 109.962 31.4288C110.684 30.9192 111.257 30.2716 111.682 29.486C112.127 28.7004 112.35 27.8723 112.35 27.0018C112.35 26.1312 112.085 25.6959 111.554 25.6959C110.79 25.6959 110.036 26.3648 109.293 27.7025C108.571 29.0401 108.051 30.5583 107.732 32.2569ZM120.242 40.4103C119.223 40.4103 118.363 40.2192 117.663 39.837C116.962 39.4336 116.442 38.924 116.102 38.3083C115.762 37.6713 115.592 37.0131 115.592 36.3336C115.592 35.6329 115.762 35.0278 116.102 34.5182C116.42 33.9874 116.813 33.6052 117.28 33.3716C118.108 31.8853 118.83 30.3884 119.446 28.8809C120.062 27.3521 120.646 25.7066 121.198 23.9442L125.911 23.3073C126.018 26.0251 126.198 28.9658 126.453 32.1295C126.559 33.4035 126.612 34.3271 126.612 34.9004C126.612 35.3888 126.57 35.7922 126.485 36.1107C127.483 35.5374 128.247 35.0066 128.778 34.5182H130.116C128.757 36.0894 127.132 37.4165 125.243 38.4994C124.627 39.1576 123.863 39.646 122.949 39.9644C122.058 40.2617 121.155 40.4103 120.242 40.4103ZM119.223 37.8942C120.009 37.8942 120.667 37.6607 121.198 37.1936C121.729 36.7264 121.994 35.9727 121.994 34.9323C121.994 34.2953 121.93 33.4035 121.803 32.2569C121.591 29.8364 121.453 28.212 121.389 27.384C120.879 29.0614 120.019 31.0679 118.809 33.4035C119.297 33.6583 119.542 34.0299 119.542 34.5182C119.542 34.9216 119.404 35.2826 119.128 35.6011C118.873 35.9196 118.544 36.0788 118.14 36.0788C117.694 36.0788 117.408 35.9408 117.28 35.6648C117.28 36.4292 117.429 36.9918 117.726 37.3528C118.045 37.7138 118.544 37.8942 119.223 37.8942ZM133.677 40.4103C132.658 40.4103 131.798 40.2192 131.098 39.837C130.397 39.4336 129.877 38.924 129.537 38.3083C129.197 37.6713 129.027 37.0131 129.027 36.3336C129.027 35.6329 129.197 35.0278 129.537 34.5182C129.856 33.9874 130.248 33.6052 130.716 33.3716C131.544 31.8853 132.266 30.3884 132.881 28.8809C133.497 27.3521 134.081 25.7066 134.633 23.9442L139.347 23.3073C139.453 26.0251 139.633 28.9658 139.888 32.1295C139.994 33.4035 140.047 34.3271 140.047 34.9004C140.047 36.1956 139.718 37.2573 139.06 38.0853C138.402 38.9134 137.584 39.5079 136.608 39.8689C135.652 40.2299 134.675 40.4103 133.677 40.4103ZM132.658 37.8942C133.444 37.8942 134.102 37.6607 134.633 37.1936C135.164 36.7264 135.429 35.9727 135.429 34.9323C135.429 34.2953 135.366 33.4035 135.238 32.2569C135.026 29.8364 134.888 28.212 134.824 27.384C134.314 29.0614 133.455 31.0679 132.244 33.4035C132.733 33.6583 132.977 34.0299 132.977 34.5182C132.977 34.9216 132.839 35.2826 132.563 35.6011C132.308 35.9196 131.979 36.0788 131.575 36.0788C131.13 36.0788 130.843 35.9408 130.716 35.6648C130.716 36.4292 130.864 36.9918 131.161 37.3528C131.48 37.7138 131.979 37.8942 132.658 37.8942Z" fill="#4A4A68"/>
</svg>
