<svg width="104" height="57" viewBox="0 0 104 57" fill="none" xmlns="http://www.w3.org/2000/svg">
<path d="M31.718 47.644V30.9265C31.8905 30.9265 32.063 30.9265 32.2355 30.9265C32.408 30.9265 32.5805 30.9265 32.753 30.9265C32.9255 30.9265 33.098 30.9265 33.2705 30.9265C33.548 30.9265 33.9455 30.9115 34.463 30.8815C34.988 30.8515 35.5505 30.8215 36.1505 30.7915C36.758 30.7615 37.3205 30.7465 37.838 30.7465C40.673 30.7465 42.7505 31.4553 44.0705 32.8728C45.3905 34.2903 46.0505 36.289 46.0505 38.869C46.0505 40.7665 45.7167 42.3865 45.0492 43.729C44.3817 45.064 43.418 46.084 42.158 46.789C40.898 47.4865 39.3755 47.8315 37.5905 47.824C36.773 47.809 35.9967 47.7753 35.2617 47.7228C34.5342 47.6703 33.848 47.644 33.203 47.644C33.038 47.644 32.873 47.644 32.708 47.644C32.543 47.644 32.378 47.644 32.213 47.644C32.048 47.644 31.883 47.644 31.718 47.644ZM35.9255 44.5615C36.143 44.629 36.4242 44.6778 36.7692 44.7078C37.1142 44.7303 37.4705 44.7415 37.838 44.7415C38.618 44.734 39.2967 44.5353 39.8742 44.1453C40.4592 43.7553 40.9092 43.1553 41.2242 42.3453C41.5467 41.5353 41.708 40.4965 41.708 39.229C41.708 37.8865 41.5617 36.8178 41.2692 36.0228C40.9767 35.2203 40.5305 34.6428 39.9305 34.2903C39.338 33.9378 38.588 33.7615 37.6805 33.7615C37.403 33.7615 37.0917 33.7803 36.7467 33.8178C36.4017 33.8478 36.128 33.8815 35.9255 33.919V44.5615ZM56.5537 47.824C54.9038 47.854 53.4938 47.5203 52.3237 46.8228C51.1612 46.1178 50.2762 45.1165 49.6687 43.819C49.0687 42.514 48.7837 40.9765 48.8137 39.2065C48.8512 37.2265 49.215 35.6253 49.905 34.4028C50.6025 33.1728 51.5512 32.269 52.7512 31.6915C53.9512 31.1065 55.3237 30.7915 56.8687 30.7465C58.4512 30.7015 59.8088 31.024 60.9413 31.714C62.0738 32.3965 62.9363 33.3828 63.5288 34.6728C64.1288 35.9628 64.4138 37.489 64.3838 39.2515C64.3463 41.2315 63.9938 42.8478 63.3263 44.1003C62.6588 45.3528 61.7438 46.279 60.5812 46.879C59.4187 47.479 58.0762 47.794 56.5537 47.824ZM56.6213 44.809C57.7013 44.809 58.5525 44.374 59.175 43.504C59.7975 42.6265 60.1088 41.1715 60.1088 39.139C60.1088 38.089 59.9888 37.1665 59.7487 36.3715C59.5087 35.5765 59.145 34.9578 58.6575 34.5153C58.17 34.0728 57.5513 33.8515 56.8012 33.8515C56.1187 33.8515 55.4962 34.0203 54.9337 34.3578C54.3712 34.6953 53.9212 35.2615 53.5837 36.0565C53.2537 36.8515 53.0887 37.939 53.0887 39.319C53.0887 40.384 53.22 41.329 53.4825 42.154C53.745 42.979 54.135 43.6278 54.6525 44.1003C55.1775 44.5728 55.8338 44.809 56.6213 44.809ZM74.922 47.824C73.272 47.854 71.862 47.5203 70.692 46.8228C69.5295 46.1178 68.6445 45.1165 68.037 43.819C67.437 42.514 67.152 40.9765 67.182 39.2065C67.2195 37.2265 67.5833 35.6253 68.2733 34.4028C68.9708 33.1728 69.9195 32.269 71.1195 31.6915C72.3195 31.1065 73.692 30.7915 75.237 30.7465C76.8195 30.7015 78.177 31.024 79.3095 31.714C80.442 32.3965 81.3045 33.3828 81.897 34.6728C82.497 35.9628 82.782 37.489 82.752 39.2515C82.7145 41.2315 82.362 42.8478 81.6945 44.1003C81.027 45.3528 80.112 46.279 78.9495 46.879C77.787 47.479 76.4445 47.794 74.922 47.824ZM74.9895 44.809C76.0695 44.809 76.9208 44.374 77.5433 43.504C78.1658 42.6265 78.477 41.1715 78.477 39.139C78.477 38.089 78.357 37.1665 78.117 36.3715C77.877 35.5765 77.5133 34.9578 77.0258 34.5153C76.5383 34.0728 75.9195 33.8515 75.1695 33.8515C74.487 33.8515 73.8645 34.0203 73.302 34.3578C72.7395 34.6953 72.2895 35.2615 71.952 36.0565C71.622 36.8515 71.457 37.939 71.457 39.319C71.457 40.384 71.5883 41.329 71.8508 42.154C72.1133 42.979 72.5033 43.6278 73.0208 44.1003C73.5458 44.5728 74.202 44.809 74.9895 44.809ZM90.5903 47.644H86.4053V30.9265C86.5628 30.9265 86.7203 30.9265 86.8778 30.9265C87.0428 30.9265 87.204 30.9265 87.3615 30.9265C87.5265 30.9265 87.6878 30.9265 87.8453 30.9265C88.4453 30.9265 89.1353 30.8965 89.9153 30.8365C90.7028 30.7765 91.6928 30.7465 92.8853 30.7465C93.6203 30.7465 94.3553 30.829 95.0903 30.994C95.8253 31.1515 96.4965 31.429 97.104 31.8265C97.7115 32.2165 98.199 32.7565 98.5665 33.4465C98.934 34.1365 99.1178 35.0065 99.1178 36.0565C99.1178 37.1965 98.9265 38.1378 98.544 38.8803C98.169 39.6153 97.6478 40.1853 96.9803 40.5903C96.3128 40.9878 95.5403 41.254 94.6628 41.389C94.3703 41.4415 94.0778 41.494 93.7853 41.5465C93.4928 41.599 93.1028 41.644 92.6153 41.6815C92.1353 41.7115 91.4603 41.7265 90.5903 41.7265V47.644ZM90.5903 38.824C90.7403 38.8465 90.9428 38.8653 91.1978 38.8803C91.4528 38.8953 91.7115 38.9065 91.974 38.914C92.2365 38.914 92.4578 38.914 92.6378 38.914C93.4928 38.914 94.1153 38.644 94.5053 38.104C94.8953 37.5565 95.0903 36.8965 95.0903 36.124C95.0903 35.7115 95.0153 35.3215 94.8653 34.954C94.7228 34.579 94.4528 34.2753 94.0553 34.0428C93.6653 33.8103 93.1028 33.694 92.3678 33.694C92.0678 33.694 91.7603 33.7128 91.4453 33.7503C91.1378 33.7803 90.8528 33.829 90.5903 33.8965V38.824ZM95.6303 47.644C95.5403 47.5315 95.454 47.3965 95.3715 47.239C95.2965 47.074 95.1803 46.8115 95.0228 46.4515C94.7978 45.949 94.5953 45.424 94.4153 44.8765C94.2353 44.3215 94.0515 43.804 93.864 43.324C93.684 42.844 93.474 42.454 93.234 42.154C92.994 41.8465 92.6978 41.689 92.3453 41.6815L93.3128 40.9165L95.9678 40.5565C96.3878 40.744 96.7515 41.0515 97.059 41.479C97.374 41.9065 97.659 42.4015 97.914 42.964C98.1765 43.519 98.4353 44.1003 98.6903 44.7078C98.9453 45.3078 99.2303 45.8815 99.5453 46.429C99.6578 46.6315 99.774 46.834 99.894 47.0365C100.014 47.239 100.13 47.4415 100.243 47.644H95.6303Z" fill="#E75950"/>
<path d="M19.1565 50.8415C17.8365 50.8415 16.6815 50.561 15.6915 50C14.7345 49.472 14.256 48.5315 14.256 47.1785C14.256 46.3205 14.4705 45.3635 14.8995 44.3075C15.4935 44.9675 16.038 45.4295 16.533 45.6935C17.061 45.9575 17.622 46.0895 18.216 46.0895C19.866 46.0895 21.087 45.1655 21.879 43.3175C22.704 41.4695 23.1165 39.4235 23.1165 37.1795C23.1165 32.9885 21.549 30.893 18.414 30.893C17.523 30.893 16.764 30.9425 16.137 31.0415L12.078 50H4.95L11.682 18.518L19.008 17.528L16.6815 28.517H16.9785C18.2325 28.517 19.404 28.121 20.493 27.329C21.582 26.504 22.4565 25.481 23.1165 24.26C23.7765 23.006 24.1065 21.752 24.1065 20.498C24.1065 18.98 23.562 17.7095 22.473 16.6865C21.417 15.6635 19.7835 15.152 17.5725 15.152C15.5595 15.152 13.596 15.614 11.682 16.538C9.768 17.429 8.2005 18.782 6.9795 20.597C5.7915 22.412 5.1975 24.6065 5.1975 27.1805C5.1975 28.4015 5.313 29.2595 5.544 29.7545C5.775 30.2165 5.8905 30.4805 5.8905 30.5465C4.1415 30.5465 2.8215 30.2 1.9305 29.507C1.0395 28.781 0.594 27.6095 0.594 25.9925C0.594 23.7485 1.4355 21.62 3.1185 19.607C4.8015 17.594 7.029 15.977 9.801 14.756C12.573 13.502 15.4935 12.875 18.5625 12.875C20.8725 12.875 22.8195 13.238 24.4035 13.964C25.9875 14.69 27.159 15.647 27.918 16.835C28.71 18.023 29.106 19.3265 29.106 20.7455C29.106 22.2635 28.677 23.732 27.819 25.151C26.961 26.57 25.74 27.725 24.156 28.616C26.136 28.979 27.6045 29.903 28.5615 31.388C29.5185 32.84 29.997 34.5725 29.997 36.5855C29.997 38.4665 29.634 40.5125 28.908 42.7235C28.215 44.9345 27.0435 46.8485 25.3935 48.4655C23.7765 50.0495 21.6975 50.8415 19.1565 50.8415Z" fill="#F8F8F8"/>
<path d="M33.6435 28.8382C32.8995 28.8382 32.295 28.6057 31.83 28.1407C31.3805 27.6757 31.1558 26.9782 31.1558 26.0482C31.1558 25.6607 31.2178 25.157 31.3418 24.537L32.9228 17.0737H36.2708L34.5968 24.9787C34.5503 25.2112 34.527 25.4282 34.527 25.6297C34.527 26.2652 34.7595 26.583 35.2245 26.583C35.6585 26.583 36.0305 26.4047 36.3405 26.0482C36.6505 25.6762 36.8985 25.1725 37.0845 24.537L38.6655 17.0737H42.0135L40.3395 24.9787C40.2775 25.2112 40.2465 25.4592 40.2465 25.7227C40.2465 26.0327 40.3163 26.2575 40.4558 26.397C40.6108 26.521 40.8588 26.583 41.1998 26.583C41.6338 26.583 42.0058 26.397 42.3158 26.025C42.6413 25.653 42.897 25.157 43.083 24.537H44.0595C43.486 26.211 42.773 27.3502 41.9205 27.9547C41.0835 28.5437 40.2388 28.8382 39.3863 28.8382C38.7198 28.8382 38.185 28.6522 37.782 28.2802C37.3945 27.9082 37.162 27.358 37.0845 26.6295C36.5575 27.482 35.9995 28.0632 35.4105 28.3732C34.837 28.6832 34.248 28.8382 33.6435 28.8382ZM46.6608 28.8382C45.9168 28.8382 45.2891 28.6987 44.7776 28.4197C44.2661 28.1252 43.8863 27.7532 43.6383 27.3037C43.3903 26.8387 43.2663 26.3582 43.2663 25.8622C43.2663 25.3507 43.3903 24.909 43.6383 24.537C43.8708 24.1495 44.1576 23.8705 44.4986 23.7C45.1031 22.615 45.6301 21.5222 46.0796 20.4217C46.5291 19.3057 46.9553 18.1045 47.3583 16.818L50.7993 16.353C50.8768 18.337 51.0086 20.4837 51.1946 22.7932C51.2721 23.7232 51.3108 24.3975 51.3108 24.816C51.3108 25.1725 51.2798 25.467 51.2178 25.6995C51.9463 25.281 52.5043 24.8935 52.8918 24.537H53.8683C52.8763 25.684 51.6906 26.6527 50.3111 27.4432C49.8616 27.9237 49.3036 28.2802 48.6371 28.5127C47.9861 28.7297 47.3273 28.8382 46.6608 28.8382ZM45.9168 27.0015C46.4903 27.0015 46.9708 26.831 47.3583 26.49C47.7458 26.149 47.9396 25.5987 47.9396 24.8392C47.9396 24.3742 47.8931 23.7232 47.8001 22.8862C47.6451 21.1192 47.5443 19.9335 47.4978 19.329C47.1258 20.5535 46.4981 22.0182 45.6146 23.7232C45.9711 23.9092 46.1493 24.1805 46.1493 24.537C46.1493 24.8315 46.0486 25.095 45.8471 25.3275C45.6611 25.56 45.4208 25.6762 45.1263 25.6762C44.8008 25.6762 44.5916 25.5755 44.4986 25.374C44.4986 25.932 44.6071 26.3427 44.8241 26.6062C45.0566 26.8697 45.4208 27.0015 45.9168 27.0015ZM57.7008 15.8182C57.1893 15.8182 56.7553 15.64 56.3988 15.2835C56.0423 14.927 55.864 14.493 55.864 13.9815C55.864 13.47 56.0423 13.036 56.3988 12.6795C56.7553 12.3075 57.1893 12.1215 57.7008 12.1215C58.2123 12.1215 58.6463 12.3075 59.0028 12.6795C59.3748 13.036 59.5608 13.47 59.5608 13.9815C59.5608 14.493 59.3748 14.927 59.0028 15.2835C58.6463 15.64 58.2123 15.8182 57.7008 15.8182ZM56.1198 28.8382C55.3758 28.8382 54.7713 28.6057 54.3063 28.1407C53.8568 27.6757 53.632 26.9782 53.632 26.0482C53.632 25.6607 53.694 25.157 53.818 24.537L55.399 17.0737H58.747L57.073 24.9787C57.011 25.2112 56.98 25.4592 56.98 25.7227C56.98 26.0327 57.0498 26.2575 57.1893 26.397C57.3443 26.521 57.5923 26.583 57.9333 26.583C58.3828 26.583 58.8013 26.397 59.1888 26.025C59.5763 25.6375 59.8553 25.1415 60.0258 24.537H61.0023C60.4288 26.211 59.6925 27.3502 58.7935 27.9547C57.8945 28.5437 57.0033 28.8382 56.1198 28.8382ZM69.3397 28.8382C68.3942 28.8382 67.6967 28.5902 67.2472 28.0942C66.8132 27.5827 66.5962 26.955 66.5962 26.211C66.5962 25.8855 66.635 25.5212 66.7125 25.1182C66.79 24.6997 66.8675 24.2967 66.945 23.9092C67.038 23.5217 67.1 23.2737 67.131 23.1652C67.255 22.6227 67.3712 22.088 67.4797 21.561C67.5882 21.034 67.6425 20.6077 67.6425 20.2822C67.6425 19.4917 67.3635 19.0965 66.8055 19.0965C66.4025 19.0965 66.046 19.298 65.736 19.701C65.426 20.0885 65.178 20.6 64.992 21.2355L63.411 28.6987H60.063L62.5275 17.0737H65.8755L65.6197 18.2827C66.3947 17.4147 67.3015 16.9807 68.34 16.9807C69.1305 16.9807 69.7582 17.1977 70.2232 17.6317C70.6882 18.0657 70.9207 18.7245 70.9207 19.608C70.9207 20.0575 70.8665 20.5612 70.758 21.1192C70.6495 21.6617 70.4945 22.3282 70.293 23.1187C70.169 23.5992 70.0527 24.072 69.9442 24.537C69.8512 24.9865 69.8047 25.343 69.8047 25.6065C69.8047 25.9165 69.8745 26.1567 70.014 26.3272C70.1535 26.4977 70.3937 26.583 70.7347 26.583C71.1997 26.583 71.5717 26.4202 71.8507 26.0947C72.1297 25.7537 72.4087 25.2345 72.6877 24.537H73.6642C73.0907 26.242 72.4242 27.389 71.6647 27.978C70.9207 28.5515 70.1457 28.8382 69.3397 28.8382ZM76.9398 28.8382C75.7928 28.8382 74.9015 28.5437 74.266 27.9547C73.6305 27.3502 73.3128 26.4125 73.3128 25.1415C73.3128 24.072 73.522 22.894 73.9405 21.6075C74.359 20.321 75.041 19.2127 75.9865 18.2827C76.932 17.3372 78.1333 16.8645 79.5903 16.8645C81.2953 16.8645 82.1478 17.6085 82.1478 19.0965C82.1478 19.9645 81.8998 20.7627 81.4038 21.4912C80.9078 22.2197 80.249 22.8087 79.4275 23.2582C78.606 23.6922 77.7303 23.9402 76.8003 24.0022C76.7693 24.4672 76.7538 24.7772 76.7538 24.9322C76.7538 25.6917 76.8855 26.211 77.149 26.49C77.4125 26.7535 77.8388 26.8852 78.4278 26.8852C79.2648 26.8852 79.9778 26.6915 80.5668 26.304C81.1713 25.9165 81.83 25.3275 82.543 24.537H83.3335C81.613 27.4045 79.4818 28.8382 76.9398 28.8382ZM76.9863 22.8862C77.5598 22.8552 78.1023 22.6537 78.6138 22.2817C79.1408 21.9097 79.5593 21.437 79.8693 20.8635C80.1948 20.29 80.3575 19.6855 80.3575 19.05C80.3575 18.4145 80.1638 18.0967 79.7763 18.0967C79.2183 18.0967 78.668 18.585 78.1255 19.5615C77.5985 20.538 77.2188 21.6462 76.9863 22.8862ZM86.1186 28.8382C85.3746 28.8382 84.7469 28.6987 84.2354 28.4197C83.7239 28.1252 83.3441 27.7532 83.0961 27.3037C82.8481 26.8387 82.7241 26.3582 82.7241 25.8622C82.7241 25.3507 82.8481 24.909 83.0961 24.537C83.3286 24.1495 83.6154 23.8705 83.9564 23.7C84.5609 22.615 85.0879 21.5222 85.5374 20.4217C85.9869 19.3057 86.4131 18.1045 86.8161 16.818L90.2571 16.353C90.3346 18.337 90.4664 20.4837 90.6524 22.7932C90.7299 23.7232 90.7686 24.3975 90.7686 24.816C90.7686 25.1725 90.7376 25.467 90.6756 25.6995C91.4041 25.281 91.9621 24.8935 92.3496 24.537H93.3261C92.3341 25.684 91.1484 26.6527 89.7689 27.4432C89.3194 27.9237 88.7614 28.2802 88.0949 28.5127C87.4439 28.7297 86.7851 28.8382 86.1186 28.8382ZM85.3746 27.0015C85.9481 27.0015 86.4286 26.831 86.8161 26.49C87.2036 26.149 87.3974 25.5987 87.3974 24.8392C87.3974 24.3742 87.3509 23.7232 87.2579 22.8862C87.1029 21.1192 87.0021 19.9335 86.9556 19.329C86.5836 20.5535 85.9559 22.0182 85.0724 23.7232C85.4289 23.9092 85.6071 24.1805 85.6071 24.537C85.6071 24.8315 85.5064 25.095 85.3049 25.3275C85.1189 25.56 84.8786 25.6762 84.5841 25.6762C84.2586 25.6762 84.0494 25.5755 83.9564 25.374C83.9564 25.932 84.0649 26.3427 84.2819 26.6062C84.5144 26.8697 84.8786 27.0015 85.3746 27.0015ZM95.9263 28.8382C95.1823 28.8382 94.5546 28.6987 94.0431 28.4197C93.5316 28.1252 93.1518 27.7532 92.9038 27.3037C92.6558 26.8387 92.5318 26.3582 92.5318 25.8622C92.5318 25.3507 92.6558 24.909 92.9038 24.537C93.1363 24.1495 93.4231 23.8705 93.7641 23.7C94.3686 22.615 94.8956 21.5222 95.3451 20.4217C95.7946 19.3057 96.2208 18.1045 96.6238 16.818L100.065 16.353C100.142 18.337 100.274 20.4837 100.46 22.7932C100.538 23.7232 100.576 24.3975 100.576 24.816C100.576 25.7615 100.336 26.5365 99.8556 27.141C99.3751 27.7455 98.7783 28.1795 98.0653 28.443C97.3678 28.7065 96.6548 28.8382 95.9263 28.8382ZM95.1823 27.0015C95.7558 27.0015 96.2363 26.831 96.6238 26.49C97.0113 26.149 97.2051 25.5987 97.2051 24.8392C97.2051 24.3742 97.1586 23.7232 97.0656 22.8862C96.9106 21.1192 96.8098 19.9335 96.7633 19.329C96.3913 20.5535 95.7636 22.0182 94.8801 23.7232C95.2366 23.9092 95.4148 24.1805 95.4148 24.537C95.4148 24.8315 95.3141 25.095 95.1126 25.3275C94.9266 25.56 94.6863 25.6762 94.3918 25.6762C94.0663 25.6762 93.8571 25.5755 93.7641 25.374C93.7641 25.932 93.8726 26.3427 94.0896 26.6062C94.3221 26.8697 94.6863 27.0015 95.1823 27.0015Z" fill="#F8F8F8"/>
</svg>
